<?xml version="1.0" encoding="UTF-8" standalone="no"?>
<!-- Created with Inkscape (http://www.inkscape.org/) -->

<svg
   xmlns:dc="http://purl.org/dc/elements/1.1/"
   xmlns:cc="http://creativecommons.org/ns#"
   xmlns:rdf="http://www.w3.org/1999/02/22-rdf-syntax-ns#"
   xmlns:svg="http://www.w3.org/2000/svg"
   xmlns="http://www.w3.org/2000/svg"
   xmlns:sodipodi="http://sodipodi.sourceforge.net/DTD/sodipodi-0.dtd"
   xmlns:inkscape="http://www.inkscape.org/namespaces/inkscape"
   width="64px"
   height="64px"
   id="svg2985"
   version="1.1"
   inkscape:version="0.48.5 r10040"
   sodipodi:docname="ship-ring-dark.svg">
  <defs
     id="defs2987" />
  <sodipodi:namedview
     id="base"
     pagecolor="#ffffff"
     bordercolor="#666666"
     borderopacity="1.0"
     inkscape:pageopacity="0.0"
     inkscape:pageshadow="2"
     inkscape:zoom="11.313709"
     inkscape:cx="26.49328"
     inkscape:cy="28.702396"
     inkscape:current-layer="layer1"
     showgrid="true"
     inkscape:document-units="px"
     inkscape:grid-bbox="true"
     inkscape:window-width="1678"
     inkscape:window-height="1032"
     inkscape:window-x="0"
     inkscape:window-y="16"
     inkscape:window-maximized="0">
    <inkscape:grid
       type="xygrid"
       id="grid2993" />
  </sodipodi:namedview>
  <metadata
     id="metadata2990">
    <rdf:RDF>
      <cc:Work
         rdf:about="">
        <dc:format>image/svg+xml</dc:format>
        <dc:type
           rdf:resource="http://purl.org/dc/dcmitype/StillImage" />
        <dc:title></dc:title>
      </cc:Work>
    </rdf:RDF>
  </metadata>
  <g
     id="layer1"
     inkscape:label="Layer 1"
     inkscape:groupmode="layer">
    <path
       style="fill:#888a85;stroke:none;stroke-width:1px;stroke-linecap:butt;stroke-linejoin:miter;stroke-opacity:1"
       d="M 32 0 L 16 4 L 4 16 L 0 32 L 4 48 L 16 60 L 32 64 L 48 60 L 60 48 L 64 32 L 60 16 L 48 4 L 32 0 z M 32 24 L 36 25 L 39 28 L 40 32 L 39 36 L 36 39 L 32 40 L 28 39 L 25 36 L 24 32 L 25 28 L 28 25 L 32 24 z "
       id="path3848" />
    <path
       style="fill:#555753;stroke:none"
       d="M 36,25 48,4 60,16 39,28 z"
       id="path3767"
       inkscape:connector-curvature="0"
       sodipodi:nodetypes="ccccc" />
    <path
       style="fill:#babdb6;stroke:none;stroke-width:1px;stroke-linecap:butt;stroke-linejoin:miter;stroke-opacity:1"
       d="m 39,36 1,-4 24,0 -4,16 z"
       id="path3771"
       inkscape:connector-curvature="0" />
    <path
       style="fill:#555753;stroke:none;stroke-width:1px;stroke-linecap:butt;stroke-linejoin:miter;stroke-opacity:1"
       d="M 36,39 39,36 60,48 48,60 z"
       id="path3773"
       inkscape:connector-curvature="0" />
    <path
       style="fill:#babdb6;stroke:none;stroke-width:1px;stroke-linecap:butt;stroke-linejoin:miter;stroke-opacity:1"
       d="M 36,39 48,60 32,64 32,40 z"
       id="path3775"
       inkscape:connector-curvature="0" />
    <path
       style="fill:#555753;stroke:none;stroke-width:1px;stroke-linecap:butt;stroke-linejoin:miter;stroke-opacity:1"
       d="M 28,39 16,60 4,48 25,36 z"
       id="path3779"
       inkscape:connector-curvature="0" />
    <path
       style="fill:#555753;stroke:none;stroke-width:1px;stroke-linecap:butt;stroke-linejoin:miter;stroke-opacity:1"
       d="M 25,28 24,32 0,32 4,16 z"
       id="path3785"
       inkscape:connector-curvature="0" />
    <path
       style="fill:#2e3436;stroke:none;stroke-width:1px;stroke-linecap:butt;stroke-linejoin:miter;stroke-opacity:1"
       d="M 28,25 25,28 4,16 16,4 z"
       id="path3787"
       inkscape:connector-curvature="0" />
    <path
       style="fill:#555753;stroke:none;stroke-width:1px;stroke-linecap:butt;stroke-linejoin:miter;stroke-opacity:1"
       d="M 32,24 28,25 16,4 32,0 z"
       id="path3789"
       inkscape:connector-curvature="0" />
    <path
       style="fill:#ce5c00;stroke:none;stroke-width:1px;stroke-linecap:butt;stroke-linejoin:miter;stroke-opacity:1"
       d="m 28,41 1,-3 6,0 1,3 8,18 -12,3 -12,-4 z"
       id="path3872"
       inkscape:connector-curvature="0" />
    <path
       style="fill:#fcaf3e;stroke:none;stroke-width:1px;stroke-linecap:butt;stroke-linejoin:miter;stroke-opacity:1"
       d="M 29,38 24,54 40,54 35,38 z"
       id="path3874"
       inkscape:connector-curvature="0" />
    <path
       style="fill:#ce5c00;stroke:none;stroke-width:1px;stroke-linecap:butt;stroke-linejoin:miter;stroke-opacity:1"
       d="m 30,39 4,0 2,11 -8,0 z"
       id="path3876"
       inkscape:connector-curvature="0" />
    <path
       style="fill:#8ae234;stroke:none;stroke-width:1px;stroke-linecap:butt;stroke-linejoin:miter;stroke-opacity:1"
       d="m 24,56 16,0 -8,2 z"
       id="path3878"
       inkscape:connector-curvature="0" />
    <path
       style="fill:#c17d11;stroke:none"
       d="m 38,41 0,-1 2,-2 1,0 6,4 0,1 -4,4 -1,0 z"
       id="path3880"
       inkscape:connector-curvature="0"
       sodipodi:nodetypes="ccccccccc" />
    <path
       style="fill:#e9b96e;stroke:none"
       d="m 38,40 2,-2 1,0 5,4 0,1 -3,3 -1,0 -4,-5 z"
       id="path3882"
       inkscape:connector-curvature="0"
       sodipodi:nodetypes="ccccccccc" />
    <path
       style="fill:#a40000;stroke:none;stroke-width:1px;stroke-linecap:butt;stroke-linejoin:miter;stroke-opacity:1"
       d="m 21,40 3,3 -2,3 -4,-4 z"
       id="path3884"
       inkscape:connector-curvature="0" />
    <path
       style="fill:#f57900;stroke:none;stroke-width:1px;stroke-linecap:butt;stroke-linejoin:miter;stroke-opacity:1"
       d="M 20,58 29,38 24,54 z"
       id="path3886"
       inkscape:connector-curvature="0" />
  </g>
</svg>
