<?xml version="1.0" encoding="UTF-8" standalone="no"?>
<!-- Created with Inkscape (http://www.inkscape.org/) -->

<svg
   xmlns:dc="http://purl.org/dc/elements/1.1/"
   xmlns:cc="http://creativecommons.org/ns#"
   xmlns:rdf="http://www.w3.org/1999/02/22-rdf-syntax-ns#"
   xmlns:svg="http://www.w3.org/2000/svg"
   xmlns="http://www.w3.org/2000/svg"
   xmlns:sodipodi="http://sodipodi.sourceforge.net/DTD/sodipodi-0.dtd"
   xmlns:inkscape="http://www.inkscape.org/namespaces/inkscape"
   width="64px"
   height="64px"
   id="svg2985"
   version="1.1"
   inkscape:version="0.48.5 r10040"
   sodipodi:docname="ship-ring-door.svg">
  <defs
     id="defs2987" />
  <sodipodi:namedview
     id="base"
     pagecolor="#ffffff"
     bordercolor="#666666"
     borderopacity="1.0"
     inkscape:pageopacity="0.0"
     inkscape:pageshadow="2"
     inkscape:zoom="11.313709"
     inkscape:cx="26.49328"
     inkscape:cy="28.702396"
     inkscape:current-layer="layer1"
     showgrid="true"
     inkscape:document-units="px"
     inkscape:grid-bbox="true"
     inkscape:window-width="1678"
     inkscape:window-height="1032"
     inkscape:window-x="0"
     inkscape:window-y="16"
     inkscape:window-maximized="0">
    <inkscape:grid
       type="xygrid"
       id="grid2993" />
  </sodipodi:namedview>
  <metadata
     id="metadata2990">
    <rdf:RDF>
      <cc:Work
         rdf:about="">
        <dc:format>image/svg+xml</dc:format>
        <dc:type
           rdf:resource="http://purl.org/dc/dcmitype/StillImage" />
        <dc:title></dc:title>
      </cc:Work>
    </rdf:RDF>
  </metadata>
  <g
     id="layer1"
     inkscape:label="Layer 1"
     inkscape:groupmode="layer">
    <path
       style="fill:#babdb6;stroke:none;stroke-width:1px;stroke-linecap:butt;stroke-linejoin:miter;stroke-opacity:1"
       d="M 32 0 L 16 4 L 4 16 L 0 32 L 4 48 L 16 60 L 32 64 L 48 60 L 60 48 L 64 32 L 60 16 L 48 4 L 32 0 z M 32 24 L 36 25 L 39 28 L 40 32 L 39 36 L 36 39 L 32 40 L 28 39 L 25 36 L 24 32 L 25 28 L 28 25 L 32 24 z "
       id="path3848" />
    <path
       style="fill:#888a85;stroke:none;stroke-width:1px;stroke-linecap:butt;stroke-linejoin:miter;stroke-opacity:1"
       d="M 32,4 46,7 57,18 60,32 57,46 46,57 32,60 18,57 7,46 4,32 7,18 18,7 z"
       id="path3930"
       inkscape:connector-curvature="0" />
    <path
       style="fill:#555753;stroke:none;stroke-width:1px;stroke-linecap:butt;stroke-linejoin:miter;stroke-opacity:1"
       d="m 32,16 8,2 6,6 2,8 -2,8 -6,6 -8,2 -8,-2 -6,-6 -2,-8 2,-8 6,-6 z"
       id="path3928"
       inkscape:connector-curvature="0"
       sodipodi:nodetypes="ccccccccccccc" />
    <path
       style="fill:#babdb6;stroke:none;stroke-width:1px;stroke-linecap:butt;stroke-linejoin:miter;stroke-opacity:1"
       d="m 12,28 0,-4 12,0 0,4 -12,0"
       id="path3934"
       inkscape:connector-curvature="0" />
    <path
       style="fill:#babdb6;stroke:none;stroke-width:1px;stroke-linecap:butt;stroke-linejoin:miter;stroke-opacity:1"
       d="m 12,36 12,0 0,4 -12,0 z"
       id="path3936"
       inkscape:connector-curvature="0" />
    <path
       style="fill:#000000;stroke:none;stroke-width:1px;stroke-linecap:butt;stroke-linejoin:miter;stroke-opacity:1"
       d="m 32,24 4,1 3,3 1,4 -1,4 -3,3 -4,1 -4,-1 -3,-3 -1,-4 1,-4 3,-3 z"
       id="path3938"
       inkscape:connector-curvature="0" />
    <path
       style="fill:#ce5c00;stroke:none;stroke-width:1px;stroke-linecap:butt;stroke-linejoin:miter;stroke-opacity:1"
       d="m 54,29 2,1 1,2 -1,2 -2,1 -2,-1 -1,-2 1,-2 z"
       id="path3940"
       inkscape:connector-curvature="0" />
    <path
       style="fill:#f57900;stroke:none"
       d="m 42,31 13,0 0,2 -13,0 z"
       id="path3932"
       inkscape:connector-curvature="0"
       sodipodi:nodetypes="ccccc" />
  </g>
</svg>
